<svg viewBox="0 0 1260 195" width="24" height="24" xmlns="http://www.w3.org/2000/svg"><title>Radeon</title><path fill="currentColor" d="M 3,133 V 81 h 68.3 c 51.79,0 68.59,-0.29 69.5,-1.2 1.26,-1.26 1.78,-29.13 0.59,-32.22 C 140.85,46.16 133.79,46 71.89,46 H 3 V 29 12 h 72.46 c 70.84,0 72.59,0.05 78,2.07 7.79,2.91 15.5,10.24 19.09,18.14 2.78,6.13 2.87,6.82 3.27,26.48 0.58,28.76 -1.03,36.16 -10,45.89 -4.87,5.28 -12.59,9.25 -19.63,10.09 -2.85,0.34 -5.19,0.74 -5.19,0.89 0,0.32 35.16,61.3 38.17,66.19 L 181.16,185 161.33,184.99 141.5,184.97 121.49,150.24 101.48,115.5 69.24,115.24 37,114.97 V 149.99 185 H 20 3 Z m 202.54,50.77 C 205.81,183.07 222.61,144.25 242.87,97.5 l 36.83,-85 17.43,-0.27 17.43,-0.27 36.69,84.77 c 20.18,46.62 36.98,85.56 37.33,86.52 0.59,1.63 -0.67,1.75 -17.79,1.75 h -18.42 l -7.49,-17.25 -7.49,-17.25 -40.07,-0.26 -40.07,-0.26 -7.43,17.26 -7.43,17.26 -18.68,0.27 c -14.79,0.22 -18.57,0.01 -18.18,-1 z M 322,115.45 c 0,-2.1 -24.47,-56.38 -25.12,-55.73 -0.65,0.65 -16.37,36.26 -23.41,53.03 l -1.36,3.25 h 24.95 C 310.77,116 322,115.75 322,115.45 Z m 101,17.59 V 81 h 17 17 v 35 35 h 51.38 c 42.16,0 51.58,-0.24 52.51,-1.36 0.82,-0.98 1.06,-15.5 0.87,-52.25 L 561.5,46.5 492.25,46.24 423,45.99 V 28.97 11.95 l 74.25,0.27 74.25,0.27 4.58,2.25 c 7.44,3.66 12.55,8.74 16.13,16.02 l 3.29,6.69 V 98.48 159.5 l -2.77,5.64 c -3.38,6.87 -9.96,13.14 -17.55,16.7 L 569.5,184.5 496.25,184.79 423,185.07 Z M 643,133 V 81 H 729.5 816 V 97.99 114.99 L 746.75,115.24 677.5,115.5 v 17.5 17.5 l 69.25,0.26 69.25,0.26 V 168.01 185 H 729.5 643 Z m 248.92,51.01 c -9.98,-1.74 -20,-9.41 -24.65,-18.87 L 864.5,159.5 V 98 36.5 l 2.47,-5 C 870.13,25.09 877.13,18.09 883.5,14.96 L 888.5,12.5 h 62 62 l 4.47,2.38 c 7,3.73 9.8,6.13 13.49,11.57 6.66,9.82 6.65,9.77 6.33,74.19 L 1036.5,158.5 l -2.81,6 c -3.54,7.56 -10.94,14.65 -18.5,17.7 -5.68,2.3 -5.73,2.3 -62.19,2.45 -31.08,0.09 -58.56,-0.2 -61.08,-0.64 z M 1001.32,149.75 c 1.57,-1.15 1.68,-5.19 1.44,-52.25 l -0.26,-51 h -52 -52 l -0.26,51.44 c -0.2,40.49 0.01,51.61 1,52.23 0.69,0.44 23.56,0.81 50.82,0.81 38.09,0.01 49.95,-0.27 51.26,-1.23 z M 1084,98.5 V 12 l 17.75,0.07 17.75,0.07 51.5,59.98 51.5,59.98 0.26,-60.05 L 1223.02,12 H 1240.01 1257 V 98.5 185 h -16.96 -16.96 L 1170.79,124.3 1118.5,63.6 1118.24,124.3 1117.98,185 H 1100.99 1084 Z M 643,29 V 12 H 729.5 816 V 29 46 H 729.5 643 Z"/></svg>
