<svg width="24px" height="24px" viewBox="-50 500 2100 750" xmlns="http://www.w3.org/2000/svg" role="img"><title>Intel Arc GPU icon</title><polygon points="384,587 286,587 6,1225 110,1225 335,705 454,980 268,980 230.35,1069 490,1071 560,1226 664,1226"/><path d="M1169,971l144,253l-106,2l-139-247H870v246h-98l-0.53-638h305.4C1147,584,1293,612,1294,782C1294.64,890.99,1227,944,1169,971z M1196.57,782.84C1196,682,1101.6,677,1060,677H871l-2,210l185.25,0.26C1095.86,887.25,1197.16,887,1196.57,782.84z"/><path d="M1730,1141c41.05,0.22,78.04-10.3,114-28c33.53-16.5,57-38,84-69l62,63c-20.87,21.86-96.85,126.43-258,127c-282,1-336-239-336-319c0-96.9,30.15-181.17,94.46-246.71C1554.77,602.77,1635.84,577,1732,577c112,0,207,62,253.16,123.98L1922,764c-25-37-94.99-93.62-196-95c-73-1-230.47,48.97-228,248C1498.64,968.63,1540,1140,1730,1141z"/></svg>
