<svg viewBox="143 143 514 514" width="24" height="24" xmlns="http://www.w3.org/2000/svg"><title>PSYS</title><path fill="currentColor" d="m440.38 390.61c3.5547-7.1094 10.824-11.602 18.777-11.602h58.02c7.9492 0 15.219 4.4922 18.777 11.602l12.973 25.949c1.457 2.9141 2.2148 6.1289 2.2148 9.3867v32.832c0 11.594-9.3984 20.992-20.992 20.992h-83.969c-11.594 0-20.992-9.3984-20.992-20.992v-32.832c0-3.2578 0.76172-6.4727 2.2188-9.3867zm18.398 38.309 8.1602-16.324h42.453l8.1641 16.324v17.262h-58.777z" fill-rule="evenodd"/><path fill="currentColor" d="m320.23 488.16c46.371 0 83.965-37.594 83.965-83.969 0-46.371-37.594-83.965-83.965-83.965-46.375 0-83.969 37.594-83.969 83.965 0 46.375 37.594 83.969 83.969 83.969zm0-33.586c27.824 0 50.379-22.555 50.379-50.383 0-27.824-22.555-50.379-50.379-50.379-27.828 0-50.383 22.555-50.383 50.379 0 27.828 22.555 50.383 50.383 50.383z" fill-rule="evenodd"/><path fill="currentColor" d="m425.19 332.82c0-4.6367 3.7617-8.3984 8.3984-8.3984h16.793c4.6367 0 8.3984 3.7617 8.3984 8.3984v16.793c0 4.6367-3.7617 8.3984-8.3984 8.3984h-16.793c-4.6367 0-8.3984-3.7617-8.3984-8.3984z"/><path fill="currentColor" d="m525.95 324.43c-4.6367 0-8.3945 3.7617-8.3945 8.3984v16.793c0 4.6367 3.7578 8.3984 8.3945 8.3984h16.797c4.6367 0 8.3945-3.7617 8.3945-8.3984v-16.793c0-4.6367-3.7578-8.3984-8.3945-8.3984z"/><path fill="currentColor" d="m471.37 332.82c0-4.6367 3.7578-8.3984 8.3984-8.3984h16.793c4.6367 0 8.3945 3.7617 8.3945 8.3984v16.793c0 4.6367-3.7578 8.3984-8.3945 8.3984h-16.793c-4.6406 0-8.3984-3.7617-8.3984-8.3984z"/><path fill="currentColor" d="m190.08 295.04c0-11.594 9.3984-20.992 20.992-20.992h377.86c11.594 0 20.992 9.3984 20.992 20.992v214.12c0 11.594-9.3984 20.992-20.992 20.992h-377.86c-11.594 0-20.992-9.3984-20.992-20.992zm33.586 201.52v-188.93h352.67v188.93z" fill-rule="evenodd"/></svg>
